# xmcd
#
# Track frame offsets:
#        150
#        12717
#        27330
#        45592
#        61712
#        80595
#        94580
#        114747
#        140980
#        152490
#        172917
#        187422
#        212017
#        250990
#
# Disc length: 3505 seconds
#
# Revision: 0
# Processed by: cddbd v1.5.1PL0 Copyright (c) Steve Scherf et al.
# Submitted via: ExactAudioCopy v0.95a5
#
DISCID=c30daf0e
DTITLE=Aretha Franklin - Aretha, The Queen! Aretha Alive
DYEAR=1900
DGENRE=Soul
TTITLE0=Baby, I Love You
TTITLE1=Soul Serenade
TTITLE2=Night Life
TTITLE3=(You Make Me Feel Like) A Natural Woman
TTITLE4=Dr. Feelgood
TTITLE5=Respect
TTITLE6=Love The One You're with
TTITLE7=Bridge Over Troubled Water
TTITLE8=Eleanor Rigby
TTITLE9=Make It with You
TTITLE10=Don't Play That Song
TTITLE11=Spirit in The Dark
TTITLE12=Spirit in The Dark (Reprise with Ray Charles)
TTITLE13=Reach Out and Touch
EXTD=
EXTT0=
EXTT1=
EXTT2=
EXTT3=
EXTT4=
EXTT5=
EXTT6=
EXTT7=
EXTT8=
EXTT9=
EXTT10=
EXTT11=
EXTT12=
EXTT13=
PLAYORDER=
